<svg width="1318" height="748" viewBox="0 0 1318 748" fill="none" xmlns="http://www.w3.org/2000/svg">
<rect width="1318" height="748" fill="#E5E5E5"/>
<rect width="1318" height="748" fill="white"/>
<path d="M1308.26 408.948C1364.38 999.176 773.633 631.564 576.499 611.564C421.125 595.802 240.401 657.059 107.95 592.994C21.3915 551.126 -33.7797 416.099 39.5689 246.427C142.114 9.21618 1249.43 -209.86 1308.26 408.948Z" fill="url(#paint0_linear)"/>
<path d="M875.204 440.177H841.365C840.767 440.177 840.289 440.655 840.289 441.253V467.081C840.289 474.614 846.387 480.592 853.801 480.592H862.768C870.301 480.592 876.28 474.494 876.28 467.081V441.373C876.28 440.655 875.802 440.177 875.204 440.177Z" fill="#211F1D"/>
<path d="M871.141 476.168C878.793 471.864 891.946 459.07 889.674 450.102C889.076 447.71 887.641 445.917 885.489 444.841C880.467 442.449 873.173 445.319 872.336 445.678L874.728 450.7C876.521 449.982 880.706 448.787 882.739 449.743C883.098 449.982 883.576 450.221 883.815 451.298C885.13 456.559 874.847 467.559 867.912 471.386L871.141 476.168Z" fill="#211F1D"/>
<path d="M617.93 461.34H440.008C437.856 461.34 436.062 459.546 436.062 457.394V354.204C436.062 352.052 437.856 350.258 440.008 350.258H618.049C620.202 350.258 621.995 352.052 621.995 354.204V457.394C621.995 459.546 620.202 461.34 617.93 461.34Z" fill="#FAFAFA"/>
<path d="M550.016 475.807C549.298 474.013 549.059 472.1 549.059 470.187V461.339H529.091H528.134H510.199V470.187C510.199 472.1 509.96 474.013 509.242 475.807C508.286 478.318 506.492 481.068 503.264 481.068H528.134H529.091H555.994C552.766 480.948 550.972 478.198 550.016 475.807Z" fill="#9B9B9B"/>
<path d="M908.966 492.907H350.331C348.896 492.907 347.82 491.83 347.82 490.396V483.46C347.82 482.026 348.896 480.949 350.331 480.949H908.966C910.401 480.949 911.477 482.026 911.477 483.46V490.396C911.477 491.83 910.401 492.907 908.966 492.907Z" fill="white"/>
<path d="M456.989 492.906H444.195V611.812L456.989 610.987V492.906Z" fill="#969696"/>
<path d="M806.971 492.906H794.177L793.779 675.402L803.108 678.498L806.971 492.906Z" fill="#969696"/>
<path d="M617.93 443.643H440.008C437.856 443.643 436.062 441.85 436.062 439.697V336.508C436.062 334.355 437.856 332.562 440.008 332.562H618.049C620.202 332.562 621.995 334.355 621.995 336.508V439.578C621.995 441.85 620.202 443.643 617.93 443.643Z" fill="black"/>
<path d="M615.062 338.54H443.238V436.229H615.062V338.54Z" fill="#FAFAFA"/>
<path d="M813.188 461.34H635.266C633.114 461.34 631.32 459.546 631.32 457.394V354.204C631.32 352.052 633.114 350.258 635.266 350.258H813.307C815.459 350.258 817.253 352.052 817.253 354.204V457.394C817.253 459.546 815.459 461.34 813.188 461.34Z" fill="#FAFAFA"/>
<path d="M745.276 475.807C744.558 474.013 744.319 472.1 744.319 470.187V461.339H724.351H723.394H705.459V470.187C705.459 472.1 705.219 474.013 704.502 475.807C703.545 478.318 701.752 481.068 698.523 481.068H723.394H724.351H751.254C747.906 480.948 746.232 478.198 745.276 475.807Z" fill="#9B9B9B"/>
<path d="M813.188 443.643H635.266C633.114 443.643 631.32 441.85 631.32 439.697V336.508C631.32 334.355 633.114 332.562 635.266 332.562H813.307C815.459 332.562 817.253 334.355 817.253 336.508V439.578C817.253 441.85 815.459 443.643 813.188 443.643Z" fill="black"/>
<path d="M810.202 338.54H638.379V436.229H810.202V338.54Z" fill="#A2CAE3"/>
<path d="M857.388 430.369C858.584 430.011 859.66 429.293 860.616 428.576C861.573 427.858 862.41 426.902 862.888 425.945C863.366 424.989 863.247 423.912 862.769 423.195C862.171 422.358 861.334 421.76 860.377 421.162C859.421 420.565 858.345 420.086 857.149 419.727C856.671 419.488 855.953 419.249 855.236 419.01C854.518 418.771 853.92 418.412 853.323 418.054C850.812 416.619 848.42 414.586 846.627 412.195C844.833 409.803 843.279 406.933 842.442 403.944C841.605 400.835 841.246 397.487 841.844 393.9C842.202 392.107 842.681 390.313 843.637 388.52C844.594 386.726 845.909 384.932 847.703 383.498C849.377 382.063 851.529 380.987 853.681 380.269C855.834 379.552 857.986 379.313 859.899 379.313H862.051C866.954 379.193 871.019 383.139 871.139 388.161C871.258 393.063 867.312 397.129 862.29 397.248C860.855 397.248 859.421 396.889 858.225 396.292C857.149 395.813 856.551 395.455 855.953 395.455C855.236 395.455 854.16 396.052 853.442 397.368C852.605 398.683 852.127 400.477 852.127 402.509C852.007 404.422 852.366 406.575 853.083 408.488C853.801 410.401 854.997 412.314 856.551 413.869C856.91 414.227 857.388 414.586 857.747 414.945C858.225 415.303 858.584 415.662 859.181 416.021C860.258 416.858 861.334 417.695 862.41 418.651C863.366 419.727 864.323 420.804 864.921 422.358C865.16 423.075 865.28 423.912 865.16 424.749C865.04 425.586 864.682 426.304 864.323 426.902C863.486 428.097 862.41 428.934 861.334 429.652C860.258 430.369 859.062 430.967 857.866 431.445C857.627 431.565 857.268 431.445 857.149 431.206C856.91 430.848 857.029 430.489 857.388 430.369Z" fill="white"/>
<path d="M775.407 423.913H675.924C671.739 423.913 668.391 420.565 668.391 416.38V357.551C668.391 353.366 671.739 350.018 675.924 350.018H775.407C779.592 350.018 782.94 353.366 782.94 357.551V416.38C782.94 420.565 779.592 423.913 775.407 423.913Z" fill="#FAFAFA"/>
<path d="M728.655 380.268H708.926V384.573H728.655V380.268Z" fill="#A2CAE3"/>
<path d="M770.144 399.399H736.545V403.703H770.144V399.399Z" fill="#A2CAE3"/>
<path d="M770.025 409.085H753.285V413.39H770.025V409.085Z" fill="#A2CAE3"/>
<path d="M728.177 399.399H708.926V403.703H728.177V399.399Z" fill="#A2CAE3"/>
<path d="M736.547 389.835H708.926V394.139H736.547V389.835Z" fill="#A2CAE3"/>
<path d="M720.285 409.085H708.926V413.39H720.285V409.085Z" fill="#A2CAE3"/>
<path d="M728.059 413.39H745.516V409.085H728.059V413.39Z" fill="#A2CAE3"/>
<path d="M761.897 389.835H745.516V394.139H761.897V389.835Z" fill="#A2CAE3"/>
<path d="M753.285 380.268H736.545V384.573H753.285V380.268Z" fill="#A2CAE3"/>
<path d="M690.273 358.028H683.936V362.333H690.273V358.028Z" fill="#A2CAE3"/>
<path d="M700.675 358.028H694.338V362.332H700.675V358.028Z" fill="#A2CAE3"/>
<path d="M710.96 358.028H704.623V362.332H710.96V358.028Z" fill="#A2CAE3"/>
<path d="M691.708 380.268H683.936V384.573H691.708V380.268Z" fill="#A2CAE3"/>
<path d="M691.708 389.835H683.936V394.139H691.708V389.835Z" fill="#A2CAE3"/>
<path d="M691.708 399.399H683.936V403.703H691.708V399.399Z" fill="#A2CAE3"/>
<path d="M691.708 409.085H683.936V413.39H691.708V409.085Z" fill="#A2CAE3"/>
<path d="M541.525 418.175C541.644 418.294 541.883 418.175 542.003 418.055L545.231 414.827L547.623 419.49C547.742 419.609 547.862 419.729 547.982 419.729C548.101 419.729 548.101 419.729 548.221 419.729L550.134 418.653C550.253 418.653 550.373 418.533 550.373 418.414C550.373 418.294 550.373 418.175 550.373 418.055L548.101 413.75H552.406C552.645 413.75 552.764 413.631 552.884 413.392C553.004 413.153 552.884 413.033 552.764 412.913L541.883 402.989C541.764 402.869 541.525 402.87 541.405 402.87C541.286 402.989 541.166 403.109 541.166 403.348V417.816C541.166 417.935 541.286 418.055 541.525 418.175Z" fill="black"/>
<path d="M486.761 359.705H459.738V373.456H486.761V359.705Z" fill="#A2CAE3"/>
<path d="M567.115 359.705H493.459V373.456H567.115V359.705Z" fill="#A2CAE3"/>
<path d="M567.113 380.271H459.738V384.217H567.113V380.271Z" fill="#A2CAE3"/>
<path d="M567.113 390.914H459.738V394.859H567.113V390.914Z" fill="#A2CAE3"/>
<path d="M515.458 401.674H459.738V405.62H515.458V401.674Z" fill="#A2CAE3"/>
<path d="M515.458 412.316H459.738V416.262H515.458V412.316Z" fill="#A2CAE3"/>
<path d="M642.802 475.689L544.515 482.026C536.025 482.624 528.732 476.167 528.253 467.678C527.655 459.188 534.112 451.895 542.602 451.416L640.889 445.079C646.031 444.72 650.455 448.666 650.813 453.808L651.531 465.765C651.889 470.906 648.063 475.33 642.802 475.689Z" fill="#FBC39D"/>
<path d="M580.149 417.338L531.483 451.535C525.026 456.079 523.352 464.927 527.657 471.503C530.885 476.525 536.983 479.036 542.842 477.84C564.246 473.536 613.509 463.492 613.03 461.818C612.672 460.503 607.172 441.013 602.747 425.349C599.878 415.664 588.399 411.479 580.149 417.338Z" fill="#211F1D"/>
<path d="M613.152 475.689L711.439 482.026C719.928 482.624 727.222 476.167 727.701 467.678C728.298 459.188 721.842 451.895 713.352 451.416L615.065 445.079C609.923 444.72 605.499 448.666 605.14 453.808L604.423 465.765C604.064 470.906 608.01 475.33 613.152 475.689Z" fill="#FBC39D"/>
<path d="M675.926 417.338L724.592 451.535C731.049 456.079 732.723 464.927 728.418 471.503C725.19 476.525 719.092 479.036 713.233 477.84C691.829 473.536 642.566 463.492 643.044 461.818C643.403 460.503 648.903 441.013 653.328 425.349C656.078 415.664 667.556 411.479 675.926 417.338Z" fill="#211F1D"/>
<path d="M589.954 354.565C584.693 354.565 580.389 358.989 580.389 364.489C580.389 369.989 584.693 374.413 589.954 374.413C595.215 374.413 599.52 369.989 599.52 364.489C599.4 358.989 595.215 354.565 589.954 354.565Z" fill="#F9AC7F"/>
<path d="M661.937 354.565C656.676 354.565 652.371 358.989 652.371 364.489C652.371 369.989 656.676 374.413 661.937 374.413C667.198 374.413 671.502 369.989 671.502 364.489C671.383 358.989 667.198 354.565 661.937 354.565Z" fill="#F9AC7F"/>
<path d="M622.959 417.458C623.915 417.578 624.872 417.698 625.948 417.698C628.937 417.698 631.927 417.339 634.796 416.621C634.796 416.621 634.796 416.621 634.796 416.502C650.34 412.436 661.939 397.729 661.939 380.272V336.509C661.939 315.823 645.797 319.171 626.068 319.171C606.219 319.171 590.196 315.943 590.196 336.509V380.272C589.957 399.881 604.425 415.904 622.959 417.458Z" fill="#FBC39D"/>
<path d="M654.522 365.923V377.76H641.728C641.728 377.76 638.619 369.271 625.825 369.271C613.031 369.271 609.922 377.76 609.922 377.76H597.128V365.923C597.128 361.259 592.823 359.705 589.834 359.227V380.271C589.834 399.881 604.302 415.903 622.836 417.458L622.716 417.577C623.673 417.697 624.749 417.697 625.705 417.697C626.662 417.697 627.738 417.697 628.694 417.577L628.575 417.458C646.989 415.903 661.576 399.881 661.576 380.271V359.227C658.826 359.705 654.522 361.259 654.522 365.923Z" fill="#1487E3"/>
<path d="M652.25 304.822C642.445 303.387 627.14 303.268 615.9 312.475C615.661 312.714 615.422 312.953 615.183 313.192H606.335C597.247 313.192 589.834 319.649 589.834 327.54V335.671V354.324V377.043C591.508 377.043 592.823 375.608 592.823 373.934V342.009C592.823 342.009 593.421 331.845 602.628 331.845H623.553H623.792H647.587C657.392 331.845 658.587 340.693 658.707 341.889V373.814C658.707 375.608 660.022 376.923 661.696 376.923V354.205V335.552V328.258L661.816 315.823C661.935 310.322 657.87 305.539 652.25 304.822Z" fill="#1487E3"/>
<path d="M661.34 326.463H591.869V386.607H661.34V326.463Z" fill="#1487E3"/>
<path d="M645.435 605.423H606.216C578.834 605.423 556.594 581.389 556.594 551.855L569.029 444.6C573.334 416.023 599.759 397.609 626.662 397.609C653.805 397.609 680.469 416.382 684.415 445.437L695.296 551.855C695.057 581.389 672.817 605.423 645.435 605.423Z" fill="#969696"/>
<path d="M635.325 623.544L620.214 619.628L613.506 618.061V489.918C613.506 488.124 614.941 486.689 616.734 486.689H635.148C636.942 486.689 638.377 488.124 638.377 489.918L638.135 624.327L635.325 623.544Z" fill="white"/>
<path d="M641.37 499.962H609.444C605.977 499.962 603.227 497.212 603.227 493.744V479.635C603.227 476.167 605.977 473.417 609.444 473.417H641.37C644.837 473.417 647.587 476.167 647.587 479.635V493.744C647.707 497.212 644.837 499.962 641.37 499.962Z" fill="#211F1D"/>
<defs>
<linearGradient id="paint0_linear" x1="-229.751" y1="62.6183" x2="1037.78" y2="362.193" gradientUnits="userSpaceOnUse">
<stop stop-color="#FFC107"/>
<stop offset="1" stop-color="#FF9C07"/>
</linearGradient>
</defs>
</svg>
