<svg width="682" height="674" viewBox="0 0 682 674" fill="none" xmlns="http://www.w3.org/2000/svg">
<g clip-path="url(#clip0)">
<rect width="1920" height="838" transform="translate(-1165.5 -119)" fill="white"/>
<path d="M249.32 143.482C225.166 143.482 205.557 123.872 205.557 99.7186C205.557 75.5653 225.166 55.9557 249.32 55.9557C273.473 55.9557 293.082 75.5653 293.082 99.7186C293.082 123.872 273.473 143.482 249.32 143.482ZM249.32 62.2929C228.634 62.2929 211.894 79.0329 211.894 99.7186C211.894 120.404 228.753 137.144 249.32 137.144C270.005 137.144 286.745 120.285 286.745 99.7186C286.745 79.1524 269.886 62.2929 249.32 62.2929Z" fill="white"/>
<path d="M250.277 102.23H221.939C221.102 102.23 220.385 101.513 220.385 100.676C220.385 99.8391 221.102 99.1216 221.939 99.1216H248.723V71.0225C248.723 70.1855 249.44 69.4681 250.277 69.4681C251.114 69.4681 251.832 70.1855 251.832 71.0225V100.676C251.832 101.513 251.114 102.23 250.277 102.23Z" fill="white"/>
<path opacity="0.36" d="M-122.545 89.1534L-212.223 293.978L53.5833 295.652L-31.0728 89.1534H-122.545Z" fill="url(#paint0_linear)"/>
<path d="M671.661 372.083C704.771 720.336 306.748 727.782 223.675 578.246C170.167 481.927 306.205 362.015 127.939 362.015C25.0714 362.015 -27.3321 226.45 23.9505 107.821C95.6464 -58.0272 630.527 -60.5645 671.661 372.083Z" fill="url(#paint1_linear)"/>
<path d="M632.661 533.012H188.92C187.781 533.012 186.926 531.936 186.926 530.501V523.566C186.926 522.131 187.781 521.055 188.92 521.055H632.661C633.8 521.055 634.655 522.131 634.655 523.566V530.501C634.655 531.936 633.8 533.012 632.661 533.012Z" fill="white"/>
<path d="M500.305 501.447H322.383C320.231 501.447 318.438 499.653 318.438 497.501V394.312C318.438 392.159 320.231 390.366 322.383 390.366H500.424C502.577 390.366 504.37 392.159 504.37 394.312V497.501C504.37 499.653 502.577 501.447 500.305 501.447Z" fill="#FAFAFA"/>
<path d="M432.393 515.914C431.675 514.12 431.436 512.207 431.436 510.294V501.446H411.468H410.511H392.576V510.294C392.576 512.207 392.337 514.12 391.619 515.914C390.663 518.425 388.869 521.175 385.641 521.175H410.511H411.468H438.371C435.023 521.055 433.349 518.305 432.393 515.914Z" fill="#9B9B9B"/>
<path d="M500.305 483.75H322.383C320.231 483.75 318.438 481.956 318.438 479.804V376.614C318.438 374.462 320.231 372.668 322.383 372.668H500.424C502.577 372.668 504.37 374.462 504.37 376.614V479.684C504.37 481.956 502.577 483.75 500.305 483.75Z" fill="black"/>
<path d="M497.319 378.647H325.496V476.336H497.319V378.647Z" fill="#A2CAE3"/>
<path d="M462.524 464.02H363.041C358.856 464.02 355.508 460.672 355.508 456.487V397.658C355.508 393.473 358.856 390.125 363.041 390.125H462.524C466.709 390.125 470.057 393.473 470.057 397.658V456.487C470.057 460.672 466.709 464.02 462.524 464.02Z" fill="#FAFAFA"/>
<path d="M415.772 420.376H396.043V424.68H415.772V420.376Z" fill="#A2CAE3"/>
<path d="M457.261 439.506H423.662V443.811H457.261V439.506Z" fill="#A2CAE3"/>
<path d="M457.142 449.192H440.402V453.497H457.142V449.192Z" fill="#A2CAE3"/>
<path d="M415.294 439.506H396.043V443.811H415.294V439.506Z" fill="#A2CAE3"/>
<path d="M423.664 429.942H396.043V434.246H423.664V429.942Z" fill="#A2CAE3"/>
<path d="M407.402 449.192H396.043V453.497H407.402V449.192Z" fill="#A2CAE3"/>
<path d="M415.176 453.497H432.633V449.192H415.176V453.497Z" fill="#A2CAE3"/>
<path d="M449.014 429.942H432.633V434.246H449.014V429.942Z" fill="#A2CAE3"/>
<path d="M440.402 420.376H423.662V424.68H440.402V420.376Z" fill="#A2CAE3"/>
<path d="M377.39 398.135H371.053V402.44H377.39V398.135Z" fill="#A2CAE3"/>
<path d="M387.792 398.135H381.455V402.44H387.792V398.135Z" fill="#A2CAE3"/>
<path d="M398.078 398.135H391.74V402.44H398.078V398.135Z" fill="#A2CAE3"/>
<path d="M378.825 420.376H371.053V424.68H378.825V420.376Z" fill="#A2CAE3"/>
<path d="M378.825 429.942H371.053V434.246H378.825V429.942Z" fill="#A2CAE3"/>
<path d="M378.825 439.506H371.053V443.811H378.825V439.506Z" fill="#A2CAE3"/>
<path d="M378.825 449.192H371.053V453.497H378.825V449.192Z" fill="#A2CAE3"/>
<path d="M496.908 519.723L398.62 526.061C390.131 526.659 382.837 520.202 382.359 511.712C381.761 503.223 388.218 495.929 396.707 495.451L494.994 489.113C500.136 488.755 504.56 492.7 504.919 497.842L505.636 509.799C505.995 514.941 502.169 519.365 496.908 519.723Z" fill="#FBC39D"/>
<path d="M434.254 461.372L385.589 495.569C379.132 500.113 377.458 508.961 381.762 515.537C384.991 520.559 391.089 523.07 396.948 521.875C418.351 517.57 467.614 507.526 467.136 505.852C466.777 504.537 461.277 485.047 456.853 469.383C453.983 459.698 442.504 455.513 434.254 461.372Z" fill="#211F1D"/>
<path d="M467.257 519.723L565.544 526.061C574.034 526.659 581.328 520.202 581.806 511.712C582.404 503.223 575.947 495.929 567.458 495.451L469.17 489.113C464.029 488.755 459.605 492.7 459.246 497.842L458.529 509.799C458.17 514.941 462.116 519.365 467.257 519.723Z" fill="#FBC39D"/>
<path d="M530.032 461.372L578.697 495.569C585.154 500.113 586.828 508.961 582.523 515.537C579.295 520.559 573.197 523.07 567.338 521.875C545.935 517.57 496.672 507.526 497.15 505.852C497.509 504.537 503.009 485.047 507.433 469.383C510.183 459.698 521.662 455.513 530.032 461.372Z" fill="#211F1D"/>
<path d="M444.06 398.599C438.799 398.599 434.494 403.023 434.494 408.523C434.494 414.023 438.799 418.448 444.06 418.448C449.321 418.448 453.625 414.023 453.625 408.523C453.506 403.023 449.321 398.599 444.06 398.599Z" fill="#F9AC7F"/>
<path d="M516.042 398.599C510.781 398.599 506.477 403.023 506.477 408.523C506.477 414.023 510.781 418.448 516.042 418.448C521.303 418.448 525.608 414.023 525.608 408.523C525.488 403.023 521.303 398.599 516.042 398.599Z" fill="#F9AC7F"/>
<path d="M477.064 461.493C478.021 461.612 478.977 461.732 480.053 461.732C483.043 461.732 486.032 461.373 488.902 460.656C488.902 460.656 488.902 460.656 488.902 460.536C504.446 456.471 516.044 441.763 516.044 424.306V380.543C516.044 359.857 499.902 363.205 480.173 363.205C460.324 363.205 444.302 359.977 444.302 380.543V424.306C444.063 443.916 458.531 459.938 477.064 461.493Z" fill="#FBC39D"/>
<path d="M508.627 409.957V421.794H495.833C495.833 421.794 492.724 413.305 479.93 413.305C467.136 413.305 464.027 421.794 464.027 421.794H451.233V409.957C451.233 405.293 446.929 403.739 443.939 403.261V424.305C443.939 443.915 458.408 459.937 476.941 461.492L476.821 461.611C477.778 461.731 478.854 461.731 479.811 461.731C480.767 461.731 481.843 461.731 482.8 461.611L482.68 461.492C501.094 459.937 515.682 443.915 515.682 424.305V403.261C512.932 403.739 508.627 405.293 508.627 409.957Z" fill="#1487E3"/>
<path d="M506.355 348.856C496.551 347.421 481.246 347.302 470.006 356.509C469.767 356.748 469.528 356.987 469.288 357.226H460.44C451.353 357.226 443.939 363.683 443.939 371.575V379.706V398.359V421.077C445.613 421.077 446.929 419.642 446.929 417.968V386.043C446.929 386.043 447.527 375.879 456.734 375.879H477.658H477.898H501.692C511.497 375.879 512.693 384.728 512.812 385.923V417.849C512.812 419.642 514.128 420.957 515.802 420.957V398.239V379.586V372.292L515.921 359.857C516.041 354.357 511.975 349.574 506.355 348.856Z" fill="#1487E3"/>
<path d="M515.445 370.498H445.975V430.642H515.445V370.498Z" fill="#1487E3"/>
<path d="M499.54 649.458H460.321C432.939 649.458 410.699 625.424 410.699 595.89L423.135 488.635C427.439 460.057 453.864 441.643 480.768 441.643C507.91 441.643 534.575 460.416 538.52 489.472L549.401 595.89C549.162 625.424 526.922 649.458 499.54 649.458Z" fill="#969696"/>
<path d="M486.898 675.462L474.674 680.665H467.613V534.364C467.613 532.341 469.048 530.723 470.842 530.723H489.256C491.049 530.723 492.484 532.341 492.484 534.364V672.12L486.898 675.462Z" fill="white"/>
<path d="M495.475 543.996H463.55C460.082 543.996 457.332 541.246 457.332 537.778V523.669C457.332 520.201 460.082 517.451 463.55 517.451H495.475C498.943 517.451 501.693 520.201 501.693 523.669V537.778C501.812 541.246 498.943 543.996 495.475 543.996Z" fill="#211F1D"/>
</g>
<defs>
<linearGradient id="paint0_linear" x1="-79.2705" y1="89.1488" x2="-79.2705" y2="295.622" gradientUnits="userSpaceOnUse">
<stop stop-color="white"/>
<stop offset="0.8606" stop-color="#FAFAFA" stop-opacity="0"/>
</linearGradient>
<linearGradient id="paint1_linear" x1="42.0326" y1="117.865" x2="612.419" y2="606.425" gradientUnits="userSpaceOnUse">
<stop stop-color="#FFC107"/>
<stop offset="1" stop-color="#FF9C07"/>
</linearGradient>
<clipPath id="clip0">
<rect width="1920" height="838" fill="white" transform="translate(-1165.5 -119)"/>
</clipPath>
</defs>
</svg>
